<?xml version="1.0" encoding="UTF-8"?>
<svg width="250px" height="250px" viewBox="0 0 250 250" version="1.1" xmlns="http://www.w3.org/2000/svg" xmlns:xlink="http://www.w3.org/1999/xlink">
    <title>Group</title>
    <defs>
        <rect id="path-1" x="0" y="0" width="250" height="250"></rect>
    </defs>
    <g id="Payments" stroke="none" stroke-width="1" fill="none" fill-rule="evenodd">
        <g id="Group">
            <mask id="mask-2" fill="white">
                <use xlink:href="#path-1"></use>
            </mask>
            <g id="Rectangle"></g>
            <g mask="url(#mask-2)" fill-rule="nonzero">
                <rect id="Rectangle" fill-opacity="0" fill="#000000" x="0" y="0" width="250" height="250"></rect>
                <path d="M15,0 L235,0 C243.279,0 250,6.721 250,15 L250,235 C250,243.279 243.279,250 235,250 L15,250 C6.721,250 0,243.279 0,235 L0,15 C0,6.721 6.721,0 15,0 Z" id="Path" fill="#65A30D"></path>
                <g id="pencil-case" transform="translate(64.499750, 39.219000)" fill="#FFFFFF">
                    <g id="Path" transform="translate(20.558250, 95.833000)">
                        <path d="M3.35,0 C1.501,0 0,1.502 0,3.351 C0,5.201 1.501,6.702 3.35,6.702 C5.2,6.702 6.701,5.201 6.701,3.351 C6.701,1.502 5.2,0 3.35,0 Z"></path>
                    </g>
                    <g id="Path" transform="translate(20.558250, 109.237000)">
                        <path d="M3.35,2.84217094e-14 C1.5,2.84217094e-14 0,1.5 0,3.351 L0,45.571 C0,47.422 1.5,48.922 3.35,48.922 C5.201,48.922 6.701,47.422 6.701,45.571 L6.701,3.351 C6.701,1.5 5.201,2.84217094e-14 3.35,2.84217094e-14 Z"></path>
                    </g>
                    <g id="Compound-Path">
                        <path d="M116.85925,2.519 C116.58325,1.441 115.79025,0.571 114.74325,0.196 C113.69625,-0.178 112.53125,-0.01 111.63425,0.647 C108.28625,3.098 91.44425,15.706 88.70025,23.239 C87.07025,27.726 87.44025,32.624 89.63025,36.773 C85.52125,42.666 81.26625,50.803 77.52125,58.752 L77.52125,3.351 C77.52125,1.5 76.02125,0 74.17125,0 L47.36425,0 C45.51325,0 44.01325,1.5 44.01325,3.351 L44.01325,69.027 L43.41225,69.027 L37.68925,46.761 C37.68625,46.75 37.68325,46.739 37.68025,46.728 L32.47625,27.31 C32.47625,27.309 32.47625,27.309 32.47525,27.308 C32.44525,27.196 32.40925,27.086 32.36725,26.978 C32.35425,26.945 32.33925,26.913 32.32525,26.88 C32.29425,26.805 32.26125,26.731 32.22425,26.658 C32.20625,26.622 32.18625,26.588 32.16625,26.553 C32.12925,26.484 32.08925,26.417 32.04625,26.351 C32.02425,26.317 32.00225,26.285 31.97925,26.252 C31.93325,26.187 31.88525,26.124 31.83425,26.061 C31.82025,26.044 31.80925,26.026 31.79425,26.009 L11.91025,2.58 C11.07825,1.599 9.75825,1.182 8.51325,1.505 C7.26825,1.828 6.31825,2.836 6.06925,4.098 L0.06125,34.463 C0.05625,34.485 0.05525,34.508 0.05125,34.53 C0.03625,34.618 0.02325,34.705 0.01525,34.793 C0.01125,34.83 0.00925,34.867 0.00625,34.905 C0.00125,34.988 0,35.071 0,35.155 C0.00125,35.194 0.00125,35.233 0.00325,35.271 C0.00725,35.357 0.01525,35.442 0.02625,35.526 C0.03025,35.561 0.03325,35.596 0.03825,35.63 C0.05725,35.749 0.08025,35.866 0.11125,35.981 L5.30925,55.38 L8.79625,69.174 C6.76225,69.521 4.88725,70.482 3.39825,71.972 C1.49925,73.871 0.45325,76.395 0.45325,79.079 C0.45325,83.447 3.25425,87.172 7.15425,88.555 L7.15425,154.808 C7.15425,164.046 14.67025,171.562 23.90825,171.562 L90.92525,171.562 C100.16325,171.562 107.67925,164.046 107.67925,154.808 L107.67925,88.561 C109.07525,88.068 110.35625,87.265 111.43525,86.187 C113.33525,84.288 114.38025,81.763 114.38025,79.079 C114.38025,74.183 110.86125,70.096 106.21925,69.208 C108.40525,60.327 109.94625,51.501 110.51425,44.576 C114.98825,42.846 118.51625,39.295 120.19025,34.698 C122.93825,27.15 117.89725,6.568 116.85925,2.519 Z M94.08825,42.138 C95.47425,43.228 97.03025,44.099 98.71525,44.712 C100.32525,45.298 101.99925,45.631 103.68225,45.708 C103.01025,52.389 101.47125,60.707 99.35625,69.027 L80.20125,69.027 C85.31825,57.432 90.04525,48.283 94.08825,42.138 Z M50.71525,6.702 L70.82025,6.702 L70.82025,14.409 L64.11825,14.409 C62.26825,14.409 60.76725,15.909 60.76725,17.759 C60.76725,19.61 62.26825,21.11 64.11825,21.11 L70.82025,21.11 L70.82025,27.812 L64.11825,27.812 C62.26825,27.812 60.76725,29.312 60.76725,31.163 C60.76725,33.013 62.26825,34.514 64.11825,34.514 L70.82025,34.514 L70.82025,41.215 L64.11825,41.215 C62.26825,41.215 60.76725,42.715 60.76725,44.566 C60.76725,46.417 62.26825,47.917 64.11825,47.917 L70.82025,47.917 L70.82025,54.618 L64.11825,54.618 C62.26825,54.618 60.76725,56.119 60.76725,57.969 C60.76725,59.82 62.26825,61.32 64.11825,61.32 L70.82025,61.32 L70.82025,69.027 L50.71525,69.027 L50.71525,6.702 Z M11.29525,12.212 L25.04225,28.41 C22.97525,31.021 20.13825,32.893 16.86325,33.77 C13.60025,34.645 10.22125,34.446 7.13625,33.231 L11.29525,12.212 Z M8.27125,40.543 C9.75525,40.854 11.26725,41.013 12.78825,41.013 C14.72525,41.013 16.67525,40.758 18.59725,40.244 C22.02725,39.325 25.11725,37.638 27.68925,35.336 L31.20225,48.447 L36.49225,69.027 L15.67125,69.027 L11.80025,53.713 C11.79625,53.698 11.79225,53.683 11.78825,53.667 L8.27125,40.543 Z M100.97725,154.808 C100.97725,160.351 96.46825,164.86 90.92525,164.86 L23.90825,164.86 C18.36525,164.86 13.85625,160.351 13.85625,154.808 L13.85625,89.132 L100.97725,89.132 L100.97725,154.808 Z M107.67925,79.079 C107.67925,79.973 107.33025,80.815 106.69725,81.448 C106.06325,82.081 105.22225,82.43 104.32825,82.43 L10.50525,82.43 C8.65725,82.43 7.15425,80.927 7.15425,79.079 C7.15425,78.185 7.50325,77.344 8.13625,76.711 C8.77025,76.077 9.61125,75.729 10.50525,75.729 L40.79125,75.729 C40.79825,75.729 40.80425,75.729 40.81125,75.729 C40.81525,75.729 40.82025,75.729 40.82425,75.729 L75.07725,75.729 C75.08325,75.729 75.08825,75.729 75.09425,75.729 C75.09725,75.729 75.10125,75.729 75.10525,75.729 L101.93525,75.729 C101.93925,75.729 101.94325,75.729 101.94825,75.729 C101.95425,75.729 101.96125,75.729 101.96725,75.729 L104.32825,75.729 C106.17525,75.729 107.67925,77.232 107.67925,79.079 Z M113.89225,32.406 C112.71025,35.653 109.98525,38.038 106.59725,38.786 C104.74325,39.199 102.81025,39.071 101.00725,38.415 C99.13925,37.735 97.53125,36.532 96.35825,34.937 C96.35725,34.937 96.35725,34.936 96.35625,34.935 C94.35325,32.217 93.84625,28.701 94.99825,25.531 C96.25325,22.082 104.42725,14.729 111.54125,9.135 C113.49825,18.028 115.14625,28.963 113.89225,32.406 Z"></path>
                    </g>
                </g>
            </g>
        </g>
    </g>
</svg>